HIERARCHY
ROOT Hips
{
	OFFSET 0.704856 85.094231 9.025129
	CHANNELS 6 Xposition Yposition Zposition Zrotation Yrotation Xrotation 
	JOINT Spine
	{
		OFFSET 0.000000 8.814246 -2.080107
		CHANNELS 3 Zrotation Yrotation Xrotation
		JOINT Spine1
		{
			OFFSET -0.000000 8.844141 -0.000000
			CHANNELS 3 Zrotation Yrotation Xrotation
			JOINT Spine2
			{
				OFFSET -0.000000 11.682268 -0.000000
				CHANNELS 3 Zrotation Yrotation Xrotation
				JOINT Spine3
				{
					OFFSET 0.000000 11.746700 0.000000
					CHANNELS 3 Zrotation Yrotation Xrotation
					JOINT Neck
					{
						OFFSET -0.000000 17.658264 0.000000
						CHANNELS 3 Zrotation Yrotation Xrotation
						JOINT Neck1
						{
							OFFSET 0.000000 5.101515 -0.000000
							CHANNELS 3 Zrotation Yrotation Xrotation
							JOINT Head
							{
								OFFSET 0.000000 5.101515 0.000000
								CHANNELS 3 Zrotation Yrotation Xrotation
								JOINT HeadEnd
								{
									OFFSET 0.000000 11.655085 0.000000
									CHANNELS 3 Zrotation Yrotation Xrotation
									End Site
									{
										OFFSET 0.000000 0.000000 0.000000
									}
								}
							}
						}
					}
					JOINT RightShoulder
					{
						OFFSET -2.625389 11.175210 -0.000000
						CHANNELS 3 Zrotation Yrotation Xrotation
						JOINT RightArm
						{
							OFFSET -0.000000 10.434715 -0.000000
							CHANNELS 3 Zrotation Yrotation Xrotation
							JOINT RightForeArm
							{
								OFFSET -0.000000 29.628420 -0.000000
								CHANNELS 3 Zrotation Yrotation Xrotation
								JOINT RightHand
								{
									OFFSET -0.000000 22.857611 -0.000000
									CHANNELS 3 Zrotation Yrotation Xrotation
									JOINT RightHandThumb1
									{
										OFFSET -2.867323 3.959563 2.944291
										CHANNELS 3 Zrotation Yrotation Xrotation
										JOINT RightHandThumb2
										{
											OFFSET 0.000000 3.350399 -0.000000
											CHANNELS 3 Zrotation Yrotation Xrotation
											JOINT RightHandThumb3
											{
												OFFSET -0.000000 3.756509 0.000000
												CHANNELS 3 Zrotation Yrotation Xrotation
												JOINT RightHandThumb4
												{
													OFFSET 0.000000 3.147345 -0.000000
													CHANNELS 3 Zrotation Yrotation Xrotation
													End Site
													{
														OFFSET 0.000000 0.000000 0.000000
													}
												}
											}
										}
									}
									JOINT RightHandIndex1
									{
										OFFSET -0.086752 10.030893 2.345280
										CHANNELS 3 Zrotation Yrotation Xrotation
										JOINT RightHandIndex2
										{
											OFFSET 0.000000 4.061090 -0.000000
											CHANNELS 3 Zrotation Yrotation Xrotation
											JOINT RightHandIndex3
											{
												OFFSET 0.000000 3.248873 -0.000000
												CHANNELS 3 Zrotation Yrotation Xrotation
												JOINT RightHandIndex4
												{
													OFFSET -0.000000 2.639709 -0.000000
													CHANNELS 3 Zrotation Yrotation Xrotation
													End Site
													{
														OFFSET 0.000000 0.000000 0.000000
													}
												}
											}
										}
									}
									JOINT RightHandMiddle1
									{
										OFFSET 0.104102 9.502952 0.006768
										CHANNELS 3 Zrotation Yrotation Xrotation
										JOINT RightHandMiddle2
										{
											OFFSET -0.000000 4.568727 0.000000
											CHANNELS 3 Zrotation Yrotation Xrotation
											JOINT RightHandMiddle3
											{
												OFFSET -0.000000 3.654981 0.000000
												CHANNELS 3 Zrotation Yrotation Xrotation
												JOINT RightHandMiddle4
												{
													OFFSET -0.000000 2.741236 0.000000
													CHANNELS 3 Zrotation Yrotation Xrotation
													End Site
													{
														OFFSET 0.000000 0.000000 0.000000
													}
												}
											}
										}
									}
									JOINT RightHandRing1
									{
										OFFSET 0.086752 8.921708 -2.267442
										CHANNELS 3 Zrotation Yrotation Xrotation
										JOINT RightHandRing2
										{
											OFFSET -0.000000 4.061090 0.000000
											CHANNELS 3 Zrotation Yrotation Xrotation
											JOINT RightHandRing3
											{
												OFFSET -0.000000 3.654981 0.000000
												CHANNELS 3 Zrotation Yrotation Xrotation
												JOINT RightHandRing4
												{
													OFFSET -0.000000 2.741236 0.000000
													CHANNELS 3 Zrotation Yrotation Xrotation
													End Site
													{
														OFFSET 0.000000 0.000000 0.000000
													}
												}
											}
										}
									}
									JOINT RightHandPinky1
									{
										OFFSET -0.173504 7.976997 -4.467199
										CHANNELS 3 Zrotation Yrotation Xrotation
										JOINT RightHandPinky2
										{
											OFFSET -0.000000 3.350399 0.000000
											CHANNELS 3 Zrotation Yrotation Xrotation
											JOINT RightHandPinky3
											{
												OFFSET 0.000000 2.842763 -0.000000
												CHANNELS 3 Zrotation Yrotation Xrotation
												JOINT RightHandPinky4
												{
													OFFSET 0.000000 2.639709 -0.000000
													CHANNELS 3 Zrotation Yrotation Xrotation
													End Site
													{
														OFFSET 0.000000 0.000000 0.000000
													}
												}
											}
										}
									}
									JOINT RightForeArmEnd
									{
										OFFSET 0.000000 0.000000 0.000000
										CHANNELS 3 Zrotation Yrotation Xrotation
										End Site
										{
											OFFSET 0.000000 0.000000 0.000000
										}
									}
								}
								JOINT RightArmEnd
								{
									OFFSET 0.000000 0.000000 0.000000
									CHANNELS 3 Zrotation Yrotation Xrotation
									End Site
									{
										OFFSET 0.000000 0.000000 0.000000
									}
								}
							}
						}
					}
					JOINT LeftShoulder
					{
						OFFSET 2.625389 11.175210 0.000000
						CHANNELS 3 Zrotation Yrotation Xrotation
						JOINT LeftArm
						{
							OFFSET 0.000000 10.813635 -0.000000
							CHANNELS 3 Zrotation Yrotation Xrotation
							JOINT LeftForeArm
							{
								OFFSET 0.000000 28.724781 -0.000000
								CHANNELS 3 Zrotation Yrotation Xrotation
								JOINT LeftHand
								{
									OFFSET 0.644384 25.716167 -0.328871
									CHANNELS 3 Zrotation Yrotation Xrotation
									JOINT LeftHandThumb1
									{
										OFFSET 2.867323 3.959563 2.944291
										CHANNELS 3 Zrotation Yrotation Xrotation
										JOINT LeftHandThumb2
										{
											OFFSET -0.000000 3.350399 -0.000000
											CHANNELS 3 Zrotation Yrotation Xrotation
											JOINT LeftHandThumb3
											{
												OFFSET -0.000000 3.756509 -0.000000
												CHANNELS 3 Zrotation Yrotation Xrotation
												JOINT LeftHandThumb4
												{
													OFFSET 0.000000 3.100000 0.000000
													CHANNELS 3 Zrotation Yrotation Xrotation
													End Site
													{
														OFFSET 0.000000 0.000000 0.000000
													}
												}
											}
										}
									}
									JOINT LeftHandIndex1
									{
										OFFSET 0.086752 10.030893 2.345280
										CHANNELS 3 Zrotation Yrotation Xrotation
										JOINT LeftHandIndex2
										{
											OFFSET 0.000000 4.061090 0.000000
											CHANNELS 3 Zrotation Yrotation Xrotation
											JOINT LeftHandIndex3
											{
												OFFSET 0.000000 3.248873 0.000000
												CHANNELS 3 Zrotation Yrotation Xrotation
												JOINT LeftHandIndex4
												{
													OFFSET 0.000000 2.639709 0.000000
													CHANNELS 3 Zrotation Yrotation Xrotation
													End Site
													{
														OFFSET 0.000000 0.000000 0.000000
													}
												}
											}
										}
									}
									JOINT LeftHandMiddle1
									{
										OFFSET -0.104102 9.502952 0.006768
										CHANNELS 3 Zrotation Yrotation Xrotation
										JOINT LeftHandMiddle2
										{
											OFFSET 0.000000 4.568727 0.000000
											CHANNELS 3 Zrotation Yrotation Xrotation
											JOINT LeftHandMiddle3
											{
												OFFSET 0.000000 3.654981 0.000000
												CHANNELS 3 Zrotation Yrotation Xrotation
												JOINT LeftHandMiddle4
												{
													OFFSET 0.000000 2.741236 0.000000
													CHANNELS 3 Zrotation Yrotation Xrotation
													End Site
													{
														OFFSET 0.000000 0.000000 0.000000
													}
												}
											}
										}
									}
									JOINT LeftHandRing1
									{
										OFFSET -0.086752 8.921708 -2.267442
										CHANNELS 3 Zrotation Yrotation Xrotation
										JOINT LeftHandRing2
										{
											OFFSET 0.000000 4.061090 0.000000
											CHANNELS 3 Zrotation Yrotation Xrotation
											JOINT LeftHandRing3
											{
												OFFSET 0.000000 3.654981 0.000000
												CHANNELS 3 Zrotation Yrotation Xrotation
												JOINT LeftHandRing4
												{
													OFFSET 0.000000 2.741236 0.000000
													CHANNELS 3 Zrotation Yrotation Xrotation
													End Site
													{
														OFFSET 0.000000 0.000000 0.000000
													}
												}
											}
										}
									}
									JOINT LeftHandPinky1
									{
										OFFSET 0.173504 7.976997 -4.467199
										CHANNELS 3 Zrotation Yrotation Xrotation
										JOINT LeftHandPinky2
										{
											OFFSET 0.000000 3.350399 0.000000
											CHANNELS 3 Zrotation Yrotation Xrotation
											JOINT LeftHandPinky3
											{
												OFFSET -0.000000 2.842763 0.000000
												CHANNELS 3 Zrotation Yrotation Xrotation
												JOINT LeftHandPinky4
												{
													OFFSET 0.000000 2.639709 -0.000000
													CHANNELS 3 Zrotation Yrotation Xrotation
													End Site
													{
														OFFSET 0.000000 0.000000 0.000000
													}
												}
											}
										}
									}
									JOINT LeftForeArmEnd
									{
										OFFSET 0.000000 0.000000 0.000000
										CHANNELS 3 Zrotation Yrotation Xrotation
										End Site
										{
											OFFSET 0.000000 0.000000 0.000000
										}
									}
								}
								JOINT LeftArmEnd
								{
									OFFSET 0.000000 0.000000 0.000000
									CHANNELS 3 Zrotation Yrotation Xrotation
									End Site
									{
										OFFSET 0.000000 0.000000 0.000000
									}
								}
							}
						}
					}
				}
			}
		}
	}
	JOINT RightUpLeg
	{
		OFFSET -11.289943 0.000000 -0.000000
		CHANNELS 3 Zrotation Yrotation Xrotation
		JOINT RightLeg
		{
			OFFSET 0.000000 -38.200325 0.000000
			CHANNELS 3 Zrotation Yrotation Xrotation
			JOINT RightFoot
			{
				OFFSET -0.000000 -39.900856 -0.000000
				CHANNELS 3 Zrotation Yrotation Xrotation
				JOINT RightToeBase
				{
					OFFSET -0.000000 -0.000000 15.261641
					CHANNELS 3 Zrotation Yrotation Xrotation
					JOINT RightToeBaseEnd
					{
						OFFSET 0.000000 0.000000 7.370709
						CHANNELS 3 Zrotation Yrotation Xrotation
						End Site
						{
							OFFSET 0.000000 0.000000 0.000000
						}
					}
				}
				JOINT RightLegEnd
				{
					OFFSET 0.000000 0.000000 0.000000
					CHANNELS 3 Zrotation Yrotation Xrotation
					End Site
					{
						OFFSET 0.000000 0.000000 0.000000
					}
				}
			}
			JOINT RightUpLegEnd
			{
				OFFSET 0.000000 0.000000 0.000000
				CHANNELS 3 Zrotation Yrotation Xrotation
				End Site
				{
					OFFSET 0.000000 0.000000 0.000000
				}
			}
		}
	}
	JOINT LeftUpLeg
	{
		OFFSET 11.315661 -0.000000 -0.000000
		CHANNELS 3 Zrotation Yrotation Xrotation
		JOINT LeftLeg
		{
			OFFSET 0.000000 -38.200325 -0.000000
			CHANNELS 3 Zrotation Yrotation Xrotation
			JOINT LeftFoot
			{
				OFFSET -0.000000 -39.900856 0.000000
				CHANNELS 3 Zrotation Yrotation Xrotation
				JOINT LeftToeBase
				{
					OFFSET -0.000000 0.000000 15.261641
					CHANNELS 3 Zrotation Yrotation Xrotation
					JOINT LeftToeBaseEnd
					{
						OFFSET -0.000000 -0.000000 7.539996
						CHANNELS 3 Zrotation Yrotation Xrotation
						End Site
						{
							OFFSET 0.000000 0.000000 0.000000
						}
					}
				}
				JOINT LeftLegEnd
				{
					OFFSET 0.000000 0.000000 0.000000
					CHANNELS 3 Zrotation Yrotation Xrotation
					End Site
					{
						OFFSET 0.000000 0.000000 0.000000
					}
				}
			}
			JOINT LeftUpLegEnd
			{
				OFFSET 0.000000 0.000000 0.000000
				CHANNELS 3 Zrotation Yrotation Xrotation
				End Site
				{
					OFFSET 0.000000 0.000000 0.000000
				}
			}
		}
	}
}
MOTION
Frames: 5
Frame Time: 0.016667
0.704856 85.094231 9.025129 -0.168112 -0.080690 -25.639877 2.201859 -0.468830 12.753312 -0.018057 0.079973 6.156335 -4.757130 1.448471 17.724262 -6.370994 0.250780 10.393661 -23.886513 4.934408 20.185745 -3.705418 -1.491487 4.183244 -2.450703 -2.263045 -20.099655 0.000000 0.000000 0.000000 91.817818 -0.432190 14.338798 54.040142 -35.777592 25.286137 -0.203889 15.850339 21.762712 5.076969 23.281919 -4.585707 0.007791 -0.007801 45.036652 0.000000 0.000000 0.000000 0.000000 0.000000 0.000000 0.000000 0.000000 0.000000 14.289034 -0.000000 -10.076925 10.002325 0.000000 0.000000 10.002325 0.000000 0.000000 0.000000 0.000000 0.000000 13.221055 -0.000000 -10.546349 9.254740 0.000000 0.000000 9.254740 0.000000 0.000000 0.000000 0.000000 0.000000 14.616498 0.000000 -9.031707 10.231545 0.000000 0.000000 10.231545 0.000000 0.000000 0.000000 0.000000 0.000000 15.270452 0.000000 -9.406311 10.689317 0.000000 0.000000 10.689317 0.000000 0.000000 0.000000 0.000000 0.000000 0.000000 0.000000 0.000000 0.000000 0.000000 0.000000 -92.298286 0.412879 9.516229 -55.098644 17.587616 8.710462 -1.034285 -12.073878 37.954239 -1.019021 -30.183916 -12.327826 -0.028081 0.028043 44.961143 0.000000 0.000000 -0.027183 0.000000 0.000000 -0.027183 0.000000 0.000000 0.000000 -16.027224 -0.000000 -6.890576 -11.219058 0.000000 0.000000 -11.219058 0.000000 0.000000 0.000000 0.000000 0.000000 -15.177661 0.000000 -8.323701 -10.624362 0.000000 0.000000 -10.624362 0.000000 0.000000 0.000000 0.000000 0.000000 -16.768263 0.000000 -8.839521 -11.737784 0.000000 0.000000 -11.737784 0.000000 0.000000 0.000000 0.000000 0.000000 -17.303177 -0.000000 -9.750026 -12.112223 0.000000 0.000000 -12.112223 0.000000 0.000000 0.000000 0.000000 0.000000 0.000000 0.000000 0.000000 0.000000 0.000000 0.000000 -7.294655 -4.152780 15.106981 -0.507756 -0.808477 32.117226 4.875174 -9.488653 4.852817 -0.835758 1.837159 -15.930357 0.000000 0.000000 0.000000 0.000000 0.000000 0.000000 0.000000 0.000000 0.000000 4.257048 -3.727641 11.323005 0.293477 0.415091 35.498081 -2.144390 6.854664 5.996557 0.856831 -0.543485 -20.625774 0.000000 0.000000 0.000000 0.000000 0.000000 0.000000 0.000000 0.000000 0.000000 
0.698813 85.152977 8.913636 0.357916 0.039207 -24.641850 1.309187 -0.137808 11.805941 0.610113 0.159300 6.328377 -5.478693 2.477702 18.244848 -4.995639 0.310876 10.804048 -23.517508 5.233255 19.544525 -3.441146 -2.676865 3.353448 -2.144709 -1.707280 -20.880848 0.000000 0.000000 0.000000 92.043762 0.052927 14.363098 54.933720 -33.914803 22.942802 0.279799 15.037426 21.924877 3.661530 22.308954 -6.071226 0.352526 -0.128802 44.805016 -0.000002 0.000009 -0.874859 -0.000001 0.000052 -0.644848 0.000017 0.000003 -0.000021 14.085904 0.131631 -8.003735 9.696957 -0.016373 -0.027134 9.745008 -0.003128 -0.030239 -0.000022 -0.000004 -0.000002 12.994668 0.026703 -9.188328 8.916778 -0.016665 -0.025435 8.819643 0.004043 -0.034643 0.000028 -0.000016 0.000024 14.291884 -0.032002 -8.563995 9.947233 0.031649 0.042164 9.855750 -0.005845 0.028441 -0.000014 0.000170 0.000012 14.682912 -0.087033 -9.676005 10.288050 0.045548 0.175328 10.157362 -0.040609 0.140274 -0.000145 0.000002 0.000031 0.000000 0.000000 0.000000 0.000000 0.000000 0.000000 -91.195381 -0.123016 9.960754 -56.776619 19.816793 9.188700 -1.484146 -12.573925 38.166882 -0.300155 -28.740875 -11.401927 -0.337448 0.138199 44.793736 0.000007 0.000022 -0.799620 0.000025 -0.000006 -0.619757 0.000115 -0.000020 0.001318 -15.407945 0.160353 -8.254539 -10.819641 -0.030705 0.132316 -10.686108 0.005451 0.128239 -0.000005 0.000208 -0.000002 -14.613592 0.061478 -9.418815 -10.102633 -0.022184 0.043066 -10.036394 0.005861 0.043801 0.000446 -0.000039 0.000014 -15.539014 -0.033726 -9.031194 -10.671850 0.030192 -0.065942 -10.669879 -0.002202 -0.044060 0.000903 0.000004 -0.000003 -15.338009 -0.135267 -9.172984 -10.762349 0.103608 -0.088028 -10.584185 -0.002149 -0.080995 -0.000284 -0.000015 -0.000041 0.000000 0.000000 0.000000 0.000000 0.000000 0.000000 -8.475355 -3.797697 15.762135 -0.434011 -0.863485 29.607687 3.360160 -9.210863 6.230443 -0.781458 1.594270 -16.963326 0.000000 0.000000 0.000000 0.000000 0.000000 0.000000 0.000000 0.000000 0.000000 3.678321 -5.311877 11.384301 0.350543 0.416054 33.820953 -1.597597 7.470349 7.168164 0.722291 -0.750261 -19.735966 0.000000 0.000000 0.000000 0.000000 0.000000 0.000000 0.000000 0.000000 0.000000 
0.702614 85.124870 8.913301 0.313286 0.069412 -24.610592 1.356201 -0.162704 11.873240 0.631455 0.157345 6.375844 -5.477776 2.391678 18.255760 -4.930802 0.311907 10.741259 -23.357574 5.380216 19.389704 -3.422451 -2.464019 3.255327 -2.214388 -1.682243 -20.894096 0.000000 0.000000 0.000000 92.025215 0.087035 14.349906 54.757698 -34.102894 22.980227 0.275033 14.978643 22.291109 3.405661 22.173510 -6.389728 0.310039 -0.131338 44.813896 0.000007 0.000011 -0.802021 0.000000 0.000053 -0.574215 0.000042 0.000016 -0.000041 13.863046 0.133392 -7.892228 9.578505 -0.021613 -0.028311 9.634021 -0.008868 -0.032521 -0.000011 0.000011 -0.000006 12.752161 0.028642 -9.146322 8.797230 -0.018895 -0.022866 8.701218 0.002626 -0.033064 0.000036 -0.000058 0.000012 13.967120 -0.034922 -8.575311 9.788588 0.036090 0.034863 9.715783 -0.002168 0.023415 -0.000024 0.000228 -0.000008 14.346699 -0.091553 -9.688845 10.118005 0.062643 0.140460 9.989294 -0.027858 0.111795 -0.000103 0.000009 0.000015 0.000000 0.000000 0.000000 0.000000 0.000000 0.000000 -91.232803 -0.199400 9.919016 -57.283302 19.887072 8.870525 -1.420801 -12.488051 38.681980 -0.218811 -28.638113 -11.168036 -0.315878 0.137152 44.793640 0.000021 0.000031 -0.771163 -0.000001 -0.000004 -0.608177 0.000238 -0.000004 0.001124 -15.410997 0.165253 -8.092688 -10.814928 -0.033554 0.128350 -10.692210 0.003768 0.121074 0.000009 0.000372 -0.000005 -14.630789 0.064204 -9.295847 -10.102979 -0.022477 0.038824 -10.050447 0.004980 0.040515 0.000509 -0.000037 -0.000013 -15.597075 -0.034722 -8.952009 -10.672215 0.032264 -0.057172 -10.667459 -0.000117 -0.037429 0.000913 0.000011 0.000001 -15.364881 -0.139653 -9.149266 -10.753228 0.112026 -0.052635 -10.562086 0.004731 -0.059209 -0.000262 0.000010 -0.000047 0.000000 0.000000 0.000000 0.000000 0.000000 0.000000 -8.430228 -3.789170 15.616907 -0.434485 -0.848981 29.903696 3.362058 -9.235354 6.141579 -0.775127 1.596871 -16.973377 0.000000 0.000000 0.000000 0.000000 0.000000 0.000000 0.000000 0.000000 0.000000 3.716473 -5.313169 11.177261 0.354777 0.407533 34.179165 -1.633427 7.355686 7.056790 0.713256 -0.751025 -19.738743 0.000000 0.000000 0.000000 0.000000 0.000000 0.000000 0.000000 0.000000 0.000000 
0.702966 85.135956 8.936740 0.307041 0.104333 -24.525686 1.372567 -0.176213 11.842721 0.666916 0.151370 6.284554 -5.477955 2.332534 18.297590 -4.869143 0.308537 10.654279 -23.255684 5.464560 19.312731 -3.399317 -2.341209 3.172617 -2.241457 -1.668595 -20.920135 0.000000 0.000000 0.000000 92.018158 0.081913 14.278963 54.554520 -34.258717 23.166891 0.274634 14.880458 22.339745 3.229473 21.902681 -6.553750 0.295488 -0.134517 44.813400 0.000009 0.000012 -0.787248 -0.000003 0.000054 -0.542967 0.000042 0.000016 -0.000041 13.750050 0.131817 -7.866807 9.512167 -0.025004 -0.028132 9.571486 -0.012300 -0.033121 -0.000010 0.000011 -0.000007 12.601425 0.029055 -9.152722 8.722353 -0.020283 -0.019987 8.627329 0.001427 -0.030762 0.000035 -0.000069 0.000014 13.687260 -0.036031 -8.614835 9.643981 0.040038 0.026741 9.589831 0.001006 0.017806 -0.000023 0.000133 -0.000007 14.032714 -0.091978 -9.712629 9.940403 0.079167 0.098630 9.823435 -0.015916 0.080256 -0.000126 0.000007 0.000002 0.000000 0.000000 0.000000 0.000000 0.000000 0.000000 -91.235100 -0.209840 9.889596 -57.528534 19.883429 8.711671 -1.386714 -12.415195 38.992275 -0.329544 -28.400965 -11.127819 -0.307951 0.138014 44.788048 0.000019 0.000032 -0.783100 -0.000016 -0.000005 -0.619506 0.000249 -0.000004 0.001035 -15.351365 0.163759 -7.931504 -10.802950 -0.036146 0.124634 -10.683619 0.002099 0.116112 0.000008 0.000392 -0.000004 -14.607740 0.065073 -9.180352 -10.093586 -0.022797 0.035450 -10.047671 0.004195 0.038410 0.000548 -0.000039 -0.000031 -15.621180 -0.034495 -8.907890 -10.671261 0.033833 -0.048869 -10.665363 0.001556 -0.031622 0.000984 0.000011 0.000001 -15.401330 -0.143241 -9.157330 -10.752432 0.118905 -0.023247 -10.553685 0.010457 -0.039332 -0.000248 0.000009 -0.000048 0.000000 0.000000 0.000000 0.000000 0.000000 0.000000 -8.456301 -3.811980 15.674670 -0.434963 -0.845784 29.844595 3.371457 -9.264557 6.225823 -0.779588 1.584181 -17.035822 0.000000 0.000000 0.000000 0.000000 0.000000 0.000000 0.000000 0.000000 0.000000 3.703787 -5.303328 11.192525 0.357390 0.406537 34.034687 -1.606176 7.311581 7.170455 0.711928 -0.743663 -19.773046 0.000000 0.000000 0.000000 0.000000 0.000000 0.000000 0.000000 0.000000 0.000000 
0.698421 85.143517 8.963393 0.300572 0.111401 -24.461224 1.392863 -0.190573 11.825083 0.690369 0.146440 6.195524 -5.466492 2.275892 18.343267 -4.820618 0.294908 10.576498 -23.165960 5.499162 19.207823 -3.379335 -2.277053 3.077836 -2.247141 -1.658673 -20.946819 0.000000 0.000000 0.000000 92.002899 0.075034 14.225820 54.400341 -34.381054 23.323647 0.271415 14.818379 22.350370 3.145182 21.667095 -6.634737 0.314171 -0.138050 44.805141 0.000009 0.000012 -0.838275 -0.000004 0.000055 -0.563992 0.000042 0.000016 -0.000041 13.748178 0.127369 -7.907689 9.486037 -0.026151 -0.026058 9.544252 -0.013024 -0.031185 -0.000011 0.000010 -0.000007 12.553317 0.028496 -9.194493 8.688974 -0.020728 -0.017252 8.593266 0.000871 -0.028215 0.000034 -0.000075 0.000015 13.523352 -0.035621 -8.656526 9.539197 0.041916 0.019966 9.502286 0.002897 0.012781 -0.000022 0.000031 -0.000006 13.822074 -0.089343 -9.720379 9.799711 0.089335 0.064016 9.696172 -0.008979 0.054324 -0.000155 0.000006 -0.000006 0.000000 0.000000 0.000000 0.000000 0.000000 0.000000 -91.197624 -0.208177 9.869866 -57.718311 19.771950 8.593163 -1.367342 -12.361583 39.240250 -0.442234 -28.137686 -11.166283 -0.317297 0.140552 44.779106 0.000019 0.000032 -0.825336 -0.000028 -0.000005 -0.651674 0.000232 -0.000004 0.001016 -15.292792 0.159880 -7.809067 -10.768677 -0.037416 0.121394 -10.649391 0.001456 0.111018 0.000006 0.000392 -0.000003 -14.565284 0.064692 -9.100843 -10.060883 -0.022763 0.032820 -10.022449 0.003707 0.036346 0.000560 -0.000040 -0.000039 -15.585777 -0.033264 -8.897250 -10.634221 0.034389 -0.042329 -10.629159 0.002510 -0.026817 0.001046 0.000011 0.000000 -15.368242 -0.143898 -9.196249 -10.714458 0.122239 0.000107 -10.516455 0.013624 -0.022674 -0.000219 0.000009 -0.000049 0.000000 0.000000 0.000000 0.000000 0.000000 0.000000 -8.471681 -3.803095 15.752847 -0.435085 -0.843064 29.773951 3.384377 -9.273921 6.270898 -0.782780 1.577325 -17.080755 0.000000 0.000000 0.000000 0.000000 0.000000 0.000000 0.000000 0.000000 0.000000 3.696015 -5.291874 11.214685 0.359122 0.406898 33.906639 -1.586360 7.290530 7.263369 0.709592 -0.739659 -19.807009 0.000000 0.000000 0.000000 0.000000 0.000000 0.000000 0.000000 0.000000 0.000000 
